<svg xmlns="http://www.w3.org/2000/svg" viewBox="0 0 750 101.22"><defs><style>.cls-1{fill:#fff;}</style></defs><g id="Layer_2" data-name="Layer 2"><g id="Camada_1" data-name="Camada 1"><path class="cls-1" d="M12.25,69.25a.39.39,0,0,0,.06-.48,40.87,40.87,0,0,1-6-21.22A11.62,11.62,0,0,1,17.93,36H45.18a.78.78,0,0,0,.56-.24L51.5,30a.19.19,0,0,0-.14-.33H17.93a17.8,17.8,0,0,0-8,1.89.2.2,0,0,1-.28-.25,41.2,41.2,0,0,1,37.83-25,40.78,40.78,0,0,1,21.3,6,.39.39,0,0,0,.48-.06l4-4a.41.41,0,0,0-.07-.62A47.44,47.44,0,0,0,0,47.47v.13H0A47.21,47.21,0,0,0,7.62,73.21a.39.39,0,0,0,.61.06Z"/><path class="cls-1" d="M94.93,47.33h0A47.4,47.4,0,0,0,79,12a.4.4,0,0,0-.55,0l-4.22,4.22h0L60.79,29.67h0L54.46,36h0L25.51,65,12,78.43A.39.39,0,0,0,12,79a49.07,49.07,0,0,0,4,3.94.4.4,0,0,0,.55,0L26,73.46l8-8a.79.79,0,0,1,.56-.23H77a17.81,17.81,0,0,0,8-1.9.21.21,0,0,1,.28.26,41.08,41.08,0,0,1-59.13,19,.39.39,0,0,0-.48.06l-4,4a.4.4,0,0,0,.07.62,47.42,47.42,0,0,0,73.2-39.84v-.14ZM77,58.94H41a.2.2,0,0,1-.14-.34L78.53,20.88a.2.2,0,0,1,.3,0A40.94,40.94,0,0,1,88.6,47.38,11.61,11.61,0,0,1,77,58.94Z"/><path class="cls-1" d="M135.48,38.94h-8.94V32.83h8.94V27.18c0-9.58,6.66-15.32,16.23-15.32h4.47v6.29h-4.56c-6.38,0-8.94,4-8.94,9.12v5.56h13.86v6.11H142.68V80.25h-7.2Z"/><path class="cls-1" d="M158.49,56.63c0-14.59,9.67-25,23.07-25a19.43,19.43,0,0,1,16.69,8.84h.55V32.83H206V80.25h-6.93V72.77h-.54a19.43,19.43,0,0,1-16.42,8.67C168.16,81.44,158.49,71.13,158.49,56.63Zm40.58,0c0-11.67-7.29-18.42-16.68-18.42-9.76,0-16.51,7.66-16.51,18.42,0,11.13,6.75,18.33,16.69,18.33C192.87,75,199.07,66.57,199.07,56.63Z"/><path class="cls-1" d="M213.75,56.54c0-14,10.3-24.89,24.25-24.89,10.31,0,19.88,6.2,22.43,16.78H253C251,42.23,245,38.21,238.18,38.21c-10.12,0-17,8-17,18.33,0,10.67,7.21,18.33,17.15,18.33,6.84,0,12.94-4,14.77-10.21h7.38c-2.46,10.57-12.12,16.78-22.43,16.78C223.78,81.44,213.75,70.58,213.75,56.54Z"/><path class="cls-1" d="M266.76,19a5.25,5.25,0,0,1,10.49,0,5.25,5.25,0,1,1-10.49,0Zm1.46,13.86h7.21V80.25h-7.21Z"/><path class="cls-1" d="M282.81,56.63c0-14.59,9.67-25,23.07-25a19.43,19.43,0,0,1,16.69,8.84h.55V32.83h7.2V80.25h-6.93V72.77h-.55a19.4,19.4,0,0,1-16.41,8.67C292.48,81.44,282.81,71.13,282.81,56.63Zm40.58,0c0-11.67-7.3-18.42-16.69-18.42-9.75,0-16.5,7.66-16.5,18.42C290.2,67.76,297,75,306.88,75,317.19,75,323.39,66.57,323.39,56.63Z"/><path class="cls-1" d="M341.14,70.13V11.86h7.2V70.13c0,2.37,1.18,3.74,3.46,3.74H354v6.38h-3.46C344.6,80.25,341.14,76.6,341.14,70.13Z"/><path class="cls-1" d="M364.6,38.58c4.19-4.65,9.66-6.93,16.5-6.93,11,0,17.6,6.93,19.7,13.68h.55V32.83h2.73V80.25h-2.73V67.76h-.55c-2.1,6.65-8.39,13.68-19.52,13.68q-10.39,0-16.68-6.84c-4.11-4.65-6.2-10.67-6.2-18.06S360.49,43.23,364.6,38.58Zm2.09,34.19c3.65,4.11,8.58,6.11,14.69,6.11,12.76,0,20-9.94,20-22.34,0-6.47-1.83-11.85-5.48-16s-8.48-6.29-14.59-6.29-10.94,2.1-14.59,6.2-5.47,9.48-5.47,16.14S363.05,68.67,366.69,72.77Z"/><path class="cls-1" d="M452.25,36.21a19.36,19.36,0,0,1,8,12.22h-2.82a17,17,0,0,0-7-10.22,21,21,0,0,0-12.49-4c-12.4-.18-21.79,10.3-21.52,22.34A21.43,21.43,0,0,0,438,78.88,20.82,20.82,0,0,0,450.42,75a17.29,17.29,0,0,0,7.12-10.3h2.73a19.39,19.39,0,0,1-8,12.22,24.33,24.33,0,0,1-14.32,4.56c-13.86.27-24.62-11.13-24.35-24.9-.27-13.77,10.67-25.17,24.35-24.89A24.33,24.33,0,0,1,452.25,36.21Z"/><path class="cls-1" d="M472.29,38.58c4.2-4.65,9.67-6.93,16.51-6.93,11,0,17.6,6.93,19.69,13.68H509V32.83h2.74V80.25H509V67.76h-.55C506.4,74.41,500.1,81.44,489,81.44q-10.39,0-16.69-6.84c-4.1-4.65-6.2-10.67-6.2-18.06S468.19,43.23,472.29,38.58Zm2.1,34.19c3.65,4.11,8.57,6.11,14.68,6.11,12.77,0,20-9.94,20-22.34,0-6.47-1.82-11.85-5.47-16S495.09,34.2,489,34.2,478,36.3,474.39,40.4s-5.47,9.48-5.47,16.14S470.74,68.67,474.39,72.77Z"/><path class="cls-1" d="M527.66,38.58c4.2-4.65,9.67-6.93,16.51-6.93,11,0,17.6,6.93,19.69,13.68h.55V11.86h2.74V80.25h-2.74V67.76h-.55c-2.09,6.65-8.39,13.68-19.51,13.68q-10.4,0-16.69-6.84c-4.1-4.65-6.2-10.67-6.2-18.06S523.56,43.23,527.66,38.58Zm2.1,34.19c3.65,4.11,8.57,6.11,14.68,6.11,12.77,0,20-9.94,20-22.34,0-6.47-1.82-11.85-5.47-16s-8.48-6.29-14.59-6.29-10.94,2.1-14.59,6.2-5.47,9.48-5.47,16.14S526.11,68.67,529.76,72.77Z"/><path class="cls-1" d="M599.81,31.65c14.32,0,22.71,10.12,22.71,23.71v2.28H579.66c.09,11.48,8.57,21.33,20.52,21.24a21.14,21.14,0,0,0,12.21-3.55,17.22,17.22,0,0,0,6.94-9h2.73c-2.55,9.12-10.94,15.14-22,15.14-13.58,0-23.25-10.77-23.25-24.9C576.83,41.4,587.14,31.65,599.81,31.65Zm19.88,23.52c-.27-13-7.84-21-19.88-21a18.8,18.8,0,0,0-14,5.84c-3.83,3.92-5.84,8.93-6,15.13Z"/><path class="cls-1" d="M632.81,80.25V32.83h2.74v9h.55a15.81,15.81,0,0,1,15.32-10.21c8.39,0,14.31,4.37,16.23,11.21h.54a16.3,16.3,0,0,1,16-11.21c5.2,0,9.39,1.64,12.49,4.83a16.54,16.54,0,0,1,4.75,12.22V80.25h-2.74V49.34c0-8.85-5.65-15.05-14.86-15.05a14,14,0,0,0-11,4.74,16.48,16.48,0,0,0-4.19,11.58V80.25h-2.74V49c0-8.39-5.83-14.68-15-14.68a14.06,14.06,0,0,0-11,4.83,16.53,16.53,0,0,0-4.19,11.4V80.25Z"/><path class="cls-1" d="M706.5,32.83h3.1L728,77.51h.55L746.9,32.83H750L725.74,91.28c-2.64,6.48-6.56,9.94-13.77,9.94h-2.18V98.67h1.82c5.56,0,9.39-2.74,11.67-8.3l3.56-8.75Z"/></g></g></svg>